<?xml version="1.0" encoding="utf-8"?>
<!-- Generator: Adobe Illustrator 24.1.2, SVG Export Plug-In . SVG Version: 6.00 Build 0)  -->
<svg version="1.1" id="Ebene_1" xmlns="http://www.w3.org/2000/svg" xmlns:xlink="http://www.w3.org/1999/xlink" x="0px" y="0px"
	 viewBox="0 0 57 57" style="enable-background:new 0 0 57 57;" xml:space="preserve">
<style type="text/css">
	.st0{fill:#FFFFFF;}
</style>
<g>
	<circle cx="28.8" cy="22.3" r="22.3"/>
	<g>
		<path class="st0" d="M36.2,25.7c0.4,0,0.7-0.2,0.8-0.6l3.9-10.3c0.1-0.2,0-0.6-0.2-0.7c-0.2-0.2-0.4-0.3-0.7-0.3H19.1l-0.7-3.3
			c-0.1-0.4-0.3-0.8-1-0.6c-0.7,0.2-0.7,0.6-0.6,1c0.1,0.3,2.9,13.4,2.9,13.4s0.4,2.2,0.7,3.3c0.3,1.4,1,1.6,2.9,1.6h13
			c0.5,0,0.9-0.4,0.9-0.9s-0.4-0.9-0.9-0.9H22.6c-0.5,0-0.9-0.4-0.9-0.9s0.4-0.9,0.9-0.9 M38.9,15.4l-3.4,8.5H21.3l-1.8-8.5
			C19.5,15.4,38.9,15.4,38.9,15.4z"/>
		<path class="st0" d="M21.1,32.5c0,1.3,1,2.3,2.3,2.3s2.3-1,2.3-2.3c0-1.3-1-2.3-2.3-2.3S21.1,31.2,21.1,32.5z"/>
		<path class="st0" d="M31.6,32.5c0,1.3,1,2.3,2.3,2.3c1.3,0,2.3-1,2.3-2.3c0-1.3-1-2.3-2.3-2.3C32.7,30.2,31.6,31.2,31.6,32.5z"/>
	</g>
</g>
<g>
	<path d="M5.2,50.1v6.8H4.1v-2.9H1.1v2.9H0v-6.8h1.1v2.8h2.9v-2.8H5.2z"/>
	<path d="M7.7,50.1v6.8H6.6v-6.8H7.7z"/>
	<path d="M13.2,55.8v1.1H9.1v-6.8h4.1v1.1h-3v1.8H13V54h-2.7v1.8H13.2z"/>
	<path d="M16.7,54.4h-1.3v2.5h-1.1v-6.8H17c1.2,0,2.2,1,2.2,2.2c0,0.9-0.6,1.6-1.4,2l1.6,2.6h-1.2L16.7,54.4z M15.4,53.4H17
		c0.6,0,1.1-0.5,1.1-1.1c0-0.6-0.5-1.1-1.1-1.1h-1.6V53.4z"/>
	<path d="M26.6,56.9l-2.7-3.2v3.2h-1.1v-6.8h1.1v3l2.6-3h1.3l-2.8,3.3l2.9,3.5H26.6z"/>
	<path d="M32.8,55.5h-2.9l-0.5,1.4h-1.2l2.5-6.8H32l2.5,6.8h-1.2L32.8,55.5z M32.4,54.5l-1.1-3.1l-1.1,3.1H32.4z"/>
	<path d="M35,54.6v-4.5h1.1v4.5c0,0.8,0.5,1.4,1.5,1.4c1,0,1.5-0.6,1.5-1.4v-4.5h1.1v4.5c0,1.5-1.1,2.4-2.6,2.4
		C36.1,57,35,56.1,35,54.6z"/>
	<path d="M42.6,51.1v1.9h2.8v1.1h-2.8v2.8h-1.1v-6.8h4v1.1H42.6z"/>
	<path d="M50.7,55.8v1.1h-4.2v-6.8h4.1v1.1h-3v1.8h2.7V54h-2.7v1.8H50.7z"/>
	<path d="M57,50.1v6.8h-0.9l-3.2-4.6v4.6h-1.1v-6.8h0.9l3.2,4.6v-4.6H57z"/>
</g>
</svg>
