<svg xmlns="http://www.w3.org/2000/svg" width="21.022" height="24"><g fill="#1488ca"><path d="M20.791 6.36l-1.206-1.113-4.126-3.81L14.108.19a.72.72 0 0 0-.487-.19h-9.54a1.75 1.75 0 0 0-1.747 1.747v10.976H.877a.877.877 0 0 0-.877.876v4.458c0 .484.393.876.877.876h1.458v3.319A1.748 1.748 0 0 0 4.081 24h15.194a1.75 1.75 0 0 0 1.747-1.747V6.888a.72.72 0 0 0-.231-.528zM1.765 14.046h1.366c.232 0 .406.011.531.034.177.03.33.088.453.173a.91.91 0 0 1 .3.361c.074.152.112.32.112.501 0 .31-.101.576-.298.791-.203.221-.549.328-1.059.328h-.779v1.376h-.626v-3.564zm17.82 8.207a.31.31 0 0 1-.31.31H4.081a.31.31 0 0 1-.31-.31v-3.319h8.467a.876.876 0 0 0 .876-.876V13.6a.876.876 0 0 0-.876-.876H3.771V1.747a.31.31 0 0 1 .31-.31h8.821v5.451c0 .397.322.718.719.718h5.964v14.647zM5.231 17.61v-3.563h1.255c.272 0 .477.017.623.051.207.048.387.136.534.262.189.16.333.367.426.615.092.244.139.525.139.836 0 .265-.032.503-.094.709a1.782 1.782 0 0 1-.244.52c-.1.138-.211.249-.331.329-.12.08-.265.142-.433.182-.164.04-.354.06-.565.06h-1.31zm5.921-2.115v.578H9.563v1.538h-.626v-3.563h2.462v.578H9.563v.871h1.589z"/><path d="M3.735 15.517c.103-.091.152-.218.152-.389a.52.52 0 0 0-.091-.312.417.417 0 0 0-.234-.166 1.768 1.768 0 0 0-.394-.027h-.777v1.032h.786c.266.001.453-.046.558-.138zM7.484 16.427c.056-.169.084-.379.084-.625 0-.335-.055-.595-.162-.77a.795.795 0 0 0-.38-.346c-.109-.042-.293-.063-.547-.063h-.622v2.409h.634c.212 0 .38-.02.498-.058a.667.667 0 0 0 .268-.154.976.976 0 0 0 .227-.393z"/></g></svg>