<svg enable-background="new 0 0 99.21 56.69" height="56.69" viewBox="0 0 99.21 56.69" width="99.21" xmlns="http://www.w3.org/2000/svg"><path d="m6.317 41.285c-.918 0-1.615-.195-2.209-.799l.765-.765c.383.382.901.51 1.454.51.705 0 1.079-.271 1.079-.757 0-.203-.059-.373-.187-.501-.119-.11-.239-.161-.545-.203l-.722-.11c-.536-.076-.901-.238-1.173-.502-.289-.28-.434-.68-.434-1.189 0-1.079.799-1.836 2.108-1.836.833 0 1.437.204 1.955.706l-.748.739c-.374-.366-.842-.417-1.241-.417-.629 0-.926.349-.926.766 0 .161.042.314.17.433.119.111.297.196.552.229l.723.111c.552.076.893.221 1.156.476.323.297.468.73.468 1.274 0 1.172-.97 1.835-2.245 1.835z"/><path d="m9.729 41.234v-6.052h3.986v1.055h-2.805v1.419h2.388v1.054h-2.388v1.471h2.805v1.054h-3.986z"/><path d="m17.426 41.234h-.884l-1.998-6.052h1.224l1.215 3.944 1.215-3.944h1.232z"/><path d="m20.401 41.234v-6.052h3.986v1.055h-2.805v1.419h2.388v1.054h-2.388v1.471h2.805v1.054h-3.986z"/><path d="m28.832 41.234-1.181-2.414h-.85v2.414h-1.181v-6.052h2.371c1.232 0 1.963.842 1.963 1.854 0 .85-.519 1.377-1.105 1.589l1.352 2.609zm-.918-4.997h-1.113v1.598h1.113c.519 0 .858-.332.858-.799 0-.468-.339-.799-.858-.799z"/><path d="m31.301 41.234v-6.052h1.181v6.052z"/><path d="m37.519 41.234-2.397-3.714v3.714h-1.181v-6.052h1.054l2.397 3.706v-3.706h1.181v6.052z"/><path d="m41.607 39.322v-1.028h3.765v1.028z"/><path d="m50.073 41.285c-.918 0-1.615-.195-2.209-.799l.765-.765c.383.382.901.51 1.454.51.705 0 1.079-.271 1.079-.757 0-.203-.06-.373-.187-.501-.119-.11-.238-.161-.544-.204l-.722-.11c-.536-.076-.901-.238-1.173-.502-.289-.28-.434-.68-.434-1.189 0-1.079.799-1.836 2.108-1.836.833 0 1.437.204 1.955.706l-.748.739c-.373-.366-.841-.417-1.241-.417-.629 0-.926.349-.926.766 0 .161.042.314.17.433.119.111.297.196.552.229l.723.111c.552.076.892.221 1.156.476.323.297.468.73.468 1.274-.002 1.173-.971 1.836-2.246 1.836z"/><path d="m53.485 41.234v-6.052h1.181v6.052z"/><path d="m59.703 41.234-2.396-3.714v3.714h-1.182v-6.052h1.055l2.396 3.706v-3.706h1.182v6.052z"/><path d="m64.291 41.285c-.697 0-1.207-.229-1.624-.638-.604-.603-.612-1.283-.612-2.438 0-1.156.009-1.836.612-2.439.417-.408.927-.638 1.624-.638 1.13 0 1.996.646 2.218 1.912h-1.207c-.119-.492-.425-.858-1.011-.858-.324 0-.587.119-.757.314-.222.255-.298.553-.298 1.709 0 1.155.076 1.453.298 1.708.17.195.433.314.757.314.586 0 .9-.365 1.02-.858h1.198c-.222 1.267-1.097 1.912-2.218 1.912z"/><path d="m67.631 41.234v-6.052h3.986v1.055h-2.805v1.419h2.388v1.054h-2.388v1.471h2.805v1.054h-3.986z"/><path d="m76.08 41.234v-4.861l-1.232 1.07v-1.189l1.232-1.071h1.104v6.052h-1.104z"/><path d="m80.691 41.285c-1.072 0-1.938-.638-1.938-1.811 0-.739.425-1.139.757-1.359-.307-.213-.68-.612-.68-1.258 0-1.071.85-1.726 1.861-1.726s1.852.654 1.852 1.726c0 .646-.373 1.045-.68 1.258.332.221.766.62.766 1.359 0 1.173-.867 1.811-1.938 1.811zm0-2.669c-.469 0-.834.374-.834.842s.365.833.834.833c.467 0 .832-.365.832-.833s-.365-.842-.832-.842zm0-2.49c-.434 0-.758.332-.758.766 0 .441.324.765.758.765.433 0 .747-.323.747-.765 0-.434-.314-.766-.747-.766z"/><path d="m86.861 38.616-1.283 2.618h-1.197l1.258-2.499c-.145.06-.307.077-.451.077-.816 0-1.598-.672-1.598-1.794 0-1.189.816-1.887 1.887-1.887s1.887.672 1.887 1.87c-.001.554-.23 1.063-.503 1.615zm-1.384-2.49c-.451 0-.781.323-.781.885 0 .535.314.884.781.884.45 0 .781-.323.781-.884 0-.562-.331-.885-.781-.885z"/><path d="m88.423 41.234v-.994l2.261-2.627c.221-.263.314-.45.314-.73 0-.45-.264-.757-.73-.757-.365 0-.74.188-.74.773h-1.104c0-1.104.808-1.768 1.845-1.768 1.07 0 1.836.672 1.836 1.76 0 .586-.23.9-.646 1.385l-1.691 1.964h2.338v.994z"/><path d="m4.071 50.157h23.623v4.818h-23.623z"/><path d="m27.693 50.157h23.622v4.818h-23.622z" fill="#f00"/><path d="m51.314 50.156h23.623v4.818h-23.623z" fill="#f2d500"/><path d="m15.207 9.113c0 3.212-2.309 5.343-5.553 5.343-3.536 0-6.054-2.592-6.054-5.771 0-3.228 2.551-5.804 5.925-5.804 2.147 0 3.971 1.065 4.924 2.592l-1.905 1.081c-.517-.891-1.663-1.542-3.035-1.542-2.147 0-3.697 1.558-3.697 3.673 0 2.066 1.501 3.625 3.858 3.625 1.775 0 2.906-.843 3.293-2.114h-3.422v-1.94h5.667v.857z"/><path d="m25.119 12.135v2.099h-6.99v-11.13h6.91v2.099h-4.682v2.369h4.278v2.067h-4.278v2.496z"/><path d="m32.163 10.37h-1.695v3.863h-2.228v-11.129h4.521c2.083 0 3.761 1.653 3.761 3.688 0 1.399-.888 2.655-2.179 3.244l2.502 4.197h-2.405zm-1.695-1.924h2.292c.839 0 1.533-.731 1.533-1.654 0-.922-.694-1.638-1.533-1.638h-2.292z"/><path d="m50.611 14.233h-2.212v-7.218l-3.18 5.168h-.258l-3.18-5.151v7.202h-2.228v-11.13h2.292l3.245 5.263 3.229-5.263h2.292z"/><path d="m60.557 12.23h-4.505l-.679 2.003h-2.404l3.955-11.13h2.76l3.973 11.13h-2.422zm-.696-2.051-1.549-4.547-1.551 4.547z"/><path d="m74.771 3.104v11.13h-1.695l-4.843-6.805v6.805h-2.228v-11.13h1.695l4.842 6.789v-6.789z"/><path d="m13.948 27.421 1.163 1.192-1.583 1.384-1.227-1.257c-.84.461-1.808.716-2.841.716-3.245 0-5.86-2.544-5.86-5.787 0-3.26 2.615-5.788 5.86-5.788s5.876 2.528 5.876 5.788c0 1.446-.516 2.75-1.388 3.752zm-3.229-.318-1.857-1.907 1.583-1.384 1.985 2.035c.42-.588.678-1.336.678-2.178 0-2.146-1.614-3.657-3.648-3.657s-3.648 1.511-3.648 3.657c0 2.13 1.614 3.641 3.648 3.641.436 0 .872-.08 1.259-.207z"/><path d="m18.228 25.593v-7.489h2.211v7.313c0 1.082.582 1.893 2.099 1.893 1.518 0 2.099-.811 2.099-1.893v-7.313h2.228v7.489c0 2.4-1.84 3.863-4.327 3.863-2.47 0-4.31-1.463-4.31-3.863z"/><path d="m36.394 27.23h-4.504l-.678 2.003h-2.405l3.955-11.13h2.761l3.972 11.13h-2.422zm-.694-2.051-1.55-4.547-1.55 4.547z"/><path d="m48.333 27.135v2.099h-6.538v-11.13h2.228v9.031z"/><path d="m52.936 18.104v11.13h-2.228v-11.13z"/><path d="m63.609 20.202h-3.051v9.031h-2.228v-9.031h-3.035v-2.099h8.314z"/><path d="m71.549 24.893v4.341h-2.212v-4.341l-3.858-6.789h2.519l2.454 4.643 2.453-4.643h2.52z"/></svg>